<svg id="visual" viewBox="0 0 900 200" width="900" height="200" xmlns="http://www.w3.org/2000/svg" xmlns:xlink="http://www.w3.org/1999/xlink" version="1.1"><path d="M0 79L8.8 80.5C17.7 82 35.3 85 53 85.5C70.7 86 88.3 84 106 80.7C123.7 77.3 141.3 72.7 159 69.7C176.7 66.7 194.3 65.3 212 65.7C229.7 66 247.3 68 265 68.7C282.7 69.3 300.3 68.7 318 70.8C335.7 73 353.3 78 371 80.3C388.7 82.7 406.3 82.3 423.8 80.7C441.3 79 458.7 76 476.2 76.8C493.7 77.7 511.3 82.3 529 82.7C546.7 83 564.3 79 582 77C599.7 75 617.3 75 635 75.5C652.7 76 670.3 77 688 76.7C705.7 76.3 723.3 74.7 741 73.3C758.7 72 776.3 71 794 72.3C811.7 73.7 829.3 77.3 847 78C864.7 78.7 882.3 76.3 891.2 75.2L900 74L900 0L891.2 0C882.3 0 864.7 0 847 0C829.3 0 811.7 0 794 0C776.3 0 758.7 0 741 0C723.3 0 705.7 0 688 0C670.3 0 652.7 0 635 0C617.3 0 599.7 0 582 0C564.3 0 546.7 0 529 0C511.3 0 493.7 0 476.2 0C458.7 0 441.3 0 423.8 0C406.3 0 388.7 0 371 0C353.3 0 335.7 0 318 0C300.3 0 282.7 0 265 0C247.3 0 229.7 0 212 0C194.3 0 176.7 0 159 0C141.3 0 123.7 0 106 0C88.3 0 70.7 0 53 0C35.3 0 17.7 0 8.8 0L0 0Z" fill="#ffffff" stroke-linecap="round" stroke-linejoin="miter"></path></svg>