<svg id="visual" viewBox="0 0 900 75" width="900" height="75" xmlns="http://www.w3.org/2000/svg" xmlns:xlink="http://www.w3.org/1999/xlink" version="1.1"><path d="M0 55L15 49C30 43 60 31 90 28.2C120 25.3 150 31.7 180 34.5C210 37.3 240 36.7 270 35C300 33.3 330 30.7 360 28.8C390 27 420 26 450 26.5C480 27 510 29 540 33.5C570 38 600 45 630 45.2C660 45.3 690 38.7 720 38C750 37.3 780 42.7 810 46.2C840 49.7 870 51.3 885 52.2L900 53" fill="none" stroke-linecap="round" stroke-linejoin="miter" stroke="#5e5e5e" stroke-width="1"></path></svg>