<svg id="visual" viewBox="0 0 900 200" width="900" height="200" xmlns="http://www.w3.org/2000/svg" xmlns:xlink="http://www.w3.org/1999/xlink" version="1.1" ><rect x="0" y="0" width="900" height="100" fill="#f4f0f0"></rect><path d="M0 92L13.7 95.2C27.3 98.3 54.7 104.7 82 106.2C109.3 107.7 136.7 104.3 163.8 100C191 95.7 218 90.3 245.2 89C272.3 87.7 299.7 90.3 327 90C354.3 89.7 381.7 86.3 409 86.5C436.3 86.7 463.7 90.3 491 93.5C518.3 96.7 545.7 99.3 573 98C600.3 96.7 627.7 91.3 654.8 89.3C682 87.3 709 88.7 736.2 89.8C763.3 91 790.7 92 818 92.8C845.3 93.7 872.7 94.3 886.3 94.7L900 95L900 201L886.3 201C872.7 201 845.3 201 818 201C790.7 201 763.3 201 736.2 201C709 201 682 201 654.8 201C627.7 201 600.3 201 573 201C545.7 201 518.3 201 491 201C463.7 201 436.3 201 409 201C381.7 201 354.3 201 327 201C299.7 201 272.3 201 245.2 201C218 201 191 201 163.8 201C136.7 201 109.3 201 82 201C54.7 201 27.3 201 13.7 201L0 201Z" fill= "#343536" stroke-linecap="round" stroke-linejoin="miter"></path></svg>