<svg id="visual" viewBox="0 0 900 100" width="900" height="100" xmlns="http://www.w3.org/2000/svg" xmlns:xlink="http://www.w3.org/1999/xlink" version="1.1"><rect x="0" y="0" width="900" height="100" fill="#f2f2f2"></rect><path d="M0 42L10 44.5C20 47 40 52 60 55.5C80 59 100 61 120 61.5C140 62 160 61 180 57C200 53 220 46 240 44.3C260 42.7 280 46.3 300 49.5C320 52.7 340 55.3 360 52.8C380 50.3 400 42.7 420 39.8C440 37 460 39 480 38.8C500 38.7 520 36.3 540 36.2C560 36 580 38 600 42.5C620 47 640 54 660 54.2C680 54.3 700 47.7 720 46.3C740 45 760 49 780 52.2C800 55.3 820 57.7 840 56.8C860 56 880 52 890 50L900 48L900 0L890 0C880 0 860 0 840 0C820 0 800 0 780 0C760 0 740 0 720 0C700 0 680 0 660 0C640 0 620 0 600 0C580 0 560 0 540 0C520 0 500 0 480 0C460 0 440 0 420 0C400 0 380 0 360 0C340 0 320 0 300 0C280 0 260 0 240 0C220 0 200 0 180 0C160 0 140 0 120 0C100 0 80 0 60 0C40 0 20 0 10 0L0 0Z" fill="#BDC6C1" stroke-linecap="round" stroke-linejoin="miter"></path></svg>