<svg id="visual" viewBox="0 0 900 100" width="900" height="100" xmlns="http://www.w3.org/2000/svg" xmlns:xlink="http://www.w3.org/1999/xlink" version="1.1"><path d="M0 56L15 52.5C30 49 60 42 90 42.7C120 43.3 150 51.7 180 54.7C210 57.7 240 55.3 270 51.8C300 48.3 330 43.7 360 41.3C390 39 420 39 450 43C480 47 510 55 540 58.5C570 62 600 61 630 56.2C660 51.3 690 42.7 720 42C750 41.3 780 48.7 810 52.5C840 56.3 870 56.7 885 56.8L900 57L900 101L885 101C870 101 840 101 810 101C780 101 750 101 720 101C690 101 660 101 630 101C600 101 570 101 540 101C510 101 480 101 450 101C420 101 390 101 360 101C330 101 300 101 270 101C240 101 210 101 180 101C150 101 120 101 90 101C60 101 30 101 15 101L0 101Z" fill="#BDC6C1" stroke-linecap="round" stroke-linejoin="miter"></path></svg>