<svg id="visual" viewBox="0 0 900 100" width="900" height="100" xmlns="http://www.w3.org/2000/svg" xmlns:xlink="http://www.w3.org/1999/xlink" version="1.1"><path d="M0 59L12.5 61C25 63 50 67 75 64.7C100 62.3 125 53.7 150 48C175 42.3 200 39.7 225 44C250 48.3 275 59.7 300 59.8C325 60 350 49 375 46.8C400 44.7 425 51.3 450 49.8C475 48.3 500 38.7 525 40.3C550 42 575 55 600 57.8C625 60.7 650 53.3 675 49.3C700 45.3 725 44.7 750 49.8C775 55 800 66 825 64C850 62 875 47 887.5 39.5L900 32L900 101L887.5 101C875 101 850 101 825 101C800 101 775 101 750 101C725 101 700 101 675 101C650 101 625 101 600 101C575 101 550 101 525 101C500 101 475 101 450 101C425 101 400 101 375 101C350 101 325 101 300 101C275 101 250 101 225 101C200 101 175 101 150 101C125 101 100 101 75 101C50 101 25 101 12.5 101L0 101Z" fill="#556d68" stroke-linecap="round" stroke-linejoin="miter"></path></svg>